<svg width="50" height="50" viewBox="0 0 50 50" fill="none" xmlns="http://www.w3.org/2000/svg">
<path d="M28.7365 18.7483C27.906 18.7483 27.233 19.4213 27.233 20.2516C27.233 21.0818 27.906 21.7548 28.7365 21.7548C29.5665 21.7548 30.2396 21.0819 30.2396 20.2516C30.2396 19.4213 29.5665 18.7483 28.7365 18.7483Z" fill="black"/>
<path d="M24.8475 18.7339C25.3817 18.7339 25.8148 18.3008 25.8148 17.7666C25.8148 17.2324 25.3817 16.7993 24.8475 16.7993C24.3133 16.7993 23.8802 17.2324 23.8802 17.7666C23.8802 18.3008 24.3133 18.7339 24.8475 18.7339Z" fill="black"/>
<path d="M20.3118 19.624C18.3938 19.624 16.8336 21.1844 16.8336 23.1022C16.8336 25.0202 18.3939 26.5805 20.3118 26.5805C22.2296 26.5805 23.7899 25.0201 23.7899 23.1022C23.7899 21.1844 22.2297 19.624 20.3118 19.624ZM20.3118 24.9826C19.275 24.9826 18.4315 24.1392 18.4315 23.1023C18.4315 22.0655 19.275 21.2221 20.3118 21.2221C21.3485 21.2221 22.192 22.0655 22.192 23.1023C22.192 24.1391 21.3485 24.9826 20.3118 24.9826Z" fill="black"/>
<path d="M49.9265 19.1024C48.9944 15.6238 40.0954 16.3553 34.8493 17.106C32.5133 14.1536 28.9 12.2559 24.8517 12.2559C18.4508 12.2559 13.1377 16.9995 12.2415 23.1559C12.2109 23.1641 12.1804 23.1737 12.1503 23.1857C7.23963 25.1544 -0.858988 28.977 0.0741158 32.4604C0.539545 34.1971 3.03876 35.0744 7.51023 35.0744C7.9825 35.0744 8.47664 35.0646 8.99285 35.0451C11.1462 34.9633 13.5672 34.712 16.1568 34.3081C18.4355 36.438 21.4937 37.7442 24.8516 37.7442C27.433 37.7442 29.8371 36.9718 31.8466 35.6473C31.8637 35.6377 31.8813 35.6295 31.8977 35.6186C32.6783 35.0996 33.395 34.4947 34.0393 33.8224C34.0826 33.7772 34.1253 33.7314 34.1681 33.6857C34.2419 33.6064 34.3149 33.5265 34.3865 33.4455C34.4477 33.3765 34.5081 33.3069 34.5678 33.2367C34.6023 33.196 34.6372 33.1556 34.6712 33.1144C34.7595 33.0078 34.8457 32.8993 34.9305 32.7896C34.9546 32.7584 34.9786 32.7272 35.0025 32.6959C35.0933 32.5762 35.1824 32.4551 35.2692 32.3323C35.2799 32.3171 35.2903 32.3017 35.301 32.2864C35.4925 32.0125 35.6736 31.7308 35.8436 31.4419C35.8475 31.4351 35.8516 31.4285 35.8555 31.4216C35.9415 31.2748 36.0246 31.1259 36.105 30.9754C36.1074 30.9709 36.1098 30.9663 36.1122 30.9617C36.3575 30.5001 36.5753 30.0218 36.7633 29.5288C36.7634 29.5286 36.7635 29.5284 36.7635 29.528C36.8681 29.2538 36.9636 28.9752 37.0493 28.6923C40.1234 27.4984 42.8335 26.2343 44.9723 24.9793C45.3527 24.756 45.4803 24.2665 45.257 23.8859C45.0337 23.5053 44.5439 23.378 44.1635 23.6011C42.3255 24.6798 40.0466 25.7673 37.4663 26.8101C37.5508 26.2186 37.5954 25.6144 37.5954 24.9999C37.5954 22.6605 36.9613 20.467 35.8567 18.5806C39.4057 18.1108 42.461 17.9724 44.7299 18.1816C47.2212 18.4113 48.2504 19.0215 48.3829 19.516C48.5063 19.9771 47.9922 20.9474 46.1782 22.2873C45.8232 22.5495 45.7481 23.0497 46.0104 23.4047C46.1671 23.6168 46.4087 23.7289 46.6535 23.7289C46.8185 23.7289 46.9848 23.678 47.1275 23.5725C49.3414 21.9374 50.2831 20.4334 49.9265 19.1024ZM8.9322 33.4483C3.50995 33.6539 1.7831 32.6642 1.61747 32.0469C1.48515 31.5529 2.0705 30.5105 4.11053 29.0672C5.99168 27.7362 8.74763 26.3106 12.1084 24.9276C12.1083 24.9518 12.1074 24.9758 12.1074 25C12.1074 27.976 13.1331 30.7168 14.849 32.8881C12.7229 33.1898 10.7304 33.38 8.9322 33.4483ZM24.8516 36.1461C22.3728 36.1461 20.0808 35.3324 18.2276 33.9587C20.9327 33.4696 23.784 32.8289 26.6806 32.0527C27.0321 31.9586 27.3815 31.8626 27.7298 31.7655C27.9499 33.0757 28.6933 34.2435 29.7611 35.0047C28.279 35.735 26.6125 36.1461 24.8516 36.1461ZM34.9773 29.6562C34.9771 29.6567 34.9769 29.6572 34.9766 29.6577C34.862 29.9055 34.7385 30.1491 34.6062 30.3876C34.6039 30.3916 34.6016 30.3957 34.5993 30.3998C34.4701 30.6321 34.3326 30.8597 34.1873 31.0822C34.1794 31.0943 34.1715 31.1064 34.1635 31.1184C34.0256 31.3279 33.8805 31.5323 33.7288 31.732C33.7085 31.7588 33.688 31.7855 33.6675 31.812C33.6058 31.8919 33.543 31.9708 33.479 32.049C33.4471 32.088 33.4147 32.1265 33.3824 32.1651C33.3347 32.2217 33.2865 32.2781 33.2378 32.3338C33.1973 32.38 33.1568 32.4261 33.1156 32.4715C33.0873 32.5029 33.0583 32.5336 33.0298 32.5645C32.9383 32.6633 32.8454 32.7608 32.7504 32.8563C32.7398 32.8671 32.7292 32.8778 32.7185 32.8884C32.2896 33.3162 31.8261 33.709 31.3326 34.0628C30.2087 33.5924 29.4179 32.5325 29.2829 31.3208C31.2933 30.7291 33.2373 30.0942 35.0762 29.4307C35.0434 29.5062 35.0115 29.5817 34.9773 29.6562ZM29.5577 29.5721C30.0863 28.4019 31.2636 27.5851 32.6287 27.5851C33.223 27.5851 33.7901 27.7377 34.2859 28.0176C32.7743 28.5578 31.1915 29.079 29.5577 29.5721ZM35.9978 24.9999C35.9977 25.726 35.9272 26.4357 35.7939 27.1234C34.9182 26.3966 33.81 25.9872 32.6287 25.9872C30.1799 25.9872 28.1408 27.7692 27.7364 30.1042C27.2498 30.2418 26.7602 30.377 26.2671 30.509C22.9645 31.3941 19.7262 32.0999 16.7075 32.601C14.8465 30.6084 13.7054 27.935 13.7054 24.9999C13.7054 18.8539 18.7056 13.8537 24.8517 13.8537C30.9976 13.8538 35.9978 18.8539 35.9978 24.9999Z" fill="black"/>
</svg>
