<svg width="30" height="30" viewBox="0 0 30 30" fill="none" xmlns="http://www.w3.org/2000/svg">
<g clip-path="url(#clip0_8_272)">
<path d="M7.67945 25.205L3.92963 28.9549C3.68988 29.1947 3.68988 29.5819 3.92963 29.8217C4.05258 29.9385 4.20627 30 4.36611 30C4.5198 30 4.67963 29.9385 4.79644 29.8217L8.54625 26.0718C8.78601 25.832 8.78601 25.4447 8.54625 25.205C8.3065 24.9652 7.91914 24.9652 7.67945 25.205Z" fill="black"/>
<path d="M4.79637 21.4551C4.55662 21.2153 4.16938 21.2153 3.92963 21.4551L0.179816 25.205C-0.0599385 25.4448 -0.0599385 25.8321 0.179816 26.0718C0.302766 26.1886 0.456455 26.2501 0.616291 26.2501C0.776127 26.2501 0.929816 26.1886 1.04662 26.0718L4.79643 22.3219C5.03613 22.0821 5.03613 21.6948 4.79637 21.4551Z" fill="black"/>
<path d="M29.8217 0.178418C29.7049 0.0616151 29.5451 -0.00600565 29.3791 0.00014189C29.2869 0.00014189 27.0493 0.0308788 24.1048 0.756289C21.3692 1.42637 17.4965 2.84645 14.5704 5.80336C13.1012 7.27262 12.0132 8.96928 11.2017 10.6353H3.7575C3.49316 10.6353 3.25955 10.8074 3.17348 11.0533L1.29861 16.6782C1.23713 16.8627 1.26787 17.0717 1.38467 17.2315C1.50148 17.3914 1.6859 17.4897 1.88262 17.4897H9.08103C8.7798 19.3155 8.76135 20.5511 8.76135 20.6187C8.76135 20.7847 8.82283 20.9446 8.93963 21.0614C9.05644 21.1782 9.21012 21.2396 9.37611 21.2396H9.38225C9.44988 21.2396 10.6855 21.2212 12.5112 20.92V28.1186C12.5112 28.3153 12.6034 28.4998 12.7694 28.6166C12.8739 28.6903 13.003 28.7334 13.1259 28.7334C13.1935 28.7334 13.255 28.7211 13.3226 28.7026L18.9473 26.8276C19.1994 26.7416 19.3654 26.508 19.3654 26.2436V18.7991C21.0313 17.9937 22.7279 16.9056 24.1971 15.4364C27.1539 12.5041 28.5739 8.63116 29.244 5.90172C29.9693 2.95711 30 0.719401 30 0.627188C30 0.455057 29.9385 0.295222 29.8217 0.178418ZM9.32072 16.2602H2.73707L4.20012 11.8648H10.6547C10.1383 13.1189 9.7757 14.3176 9.52365 15.3565C9.44982 15.6639 9.38219 15.9651 9.32072 16.2602ZM18.1359 25.8011L13.7406 27.2642V20.6864C14.0357 20.6249 14.3308 20.5573 14.6442 20.4835C15.6831 20.2315 16.8818 19.8626 18.1359 19.3524V25.8011ZM28.0452 5.63737C27.4121 8.20698 26.0781 11.8402 23.3303 14.5635C20.5825 17.3114 16.9494 18.6454 14.386 19.2786C12.4927 19.7458 10.8821 19.9118 10.0338 19.9733C10.1814 17.8647 11.0051 11.1086 15.4434 6.67016C18.1667 3.92227 21.7997 2.58826 24.3692 1.95506C26.2687 1.48785 27.8854 1.31572 28.7399 1.26039C28.6783 2.1149 28.5124 3.73164 28.0452 5.63737Z" fill="black"/>
<path d="M19.4022 7.50028C19.4022 9.20929 20.7915 10.5986 22.5004 10.5986C24.2032 10.5986 25.5985 9.20923 25.5985 7.50028C25.5985 5.79132 24.2093 4.40198 22.5004 4.40198C20.7915 4.40198 19.4022 5.79126 19.4022 7.50028ZM24.3692 7.50028C24.3692 8.51462 23.5147 9.36913 22.5004 9.36913C21.4861 9.36913 20.6317 8.51462 20.6317 7.50028C20.6317 6.48593 21.4861 5.63143 22.5004 5.63143C23.5085 5.63143 24.3692 6.49208 24.3692 7.50028Z" fill="black"/>
</g>
<defs>
<clipPath id="clip0_8_272">
<rect width="30" height="30" fill="white"/>
</clipPath>
</defs>
</svg>
