<svg width="30" height="30" viewBox="0 0 30 30" fill="none" xmlns="http://www.w3.org/2000/svg">
<g clip-path="url(#clip0_7_147)">
<path d="M29.3911 26.2079L20.5603 17.3771C19.8315 16.6483 19.6166 15.5573 20.0127 14.5975C20.5537 13.2866 20.8164 11.8966 20.7937 10.4658C20.75 7.71035 19.6507 5.13516 17.6985 3.21469C15.7465 1.29456 13.1536 0.237061 10.3975 0.237061C7.65504 0.237061 5.06742 1.2954 3.11127 3.21708C1.15774 5.13624 0.0534989 7.69959 0.00192352 10.4349C-0.0510264 13.2395 1.00839 15.8936 2.98487 17.9083C4.96027 19.9219 7.59169 21.0312 10.3944 21.0321C10.3955 21.0321 10.3965 21.0321 10.3976 21.0321C11.9661 21.0321 13.4738 20.6913 14.8788 20.0192C15.8634 19.5481 17.0361 19.7431 17.7971 20.5041L26.4461 29.153C26.8394 29.5463 27.3624 29.7629 27.9186 29.7629C28.4747 29.7629 28.9977 29.5463 29.3911 29.1529C30.203 28.341 30.203 27.0198 29.3911 26.2079ZM28.546 28.3077C28.3783 28.4753 28.1556 28.5676 27.9186 28.5676C27.6816 28.5676 27.4588 28.4753 27.2913 28.3077L18.6423 19.6589C17.9289 18.9455 16.9713 18.5697 15.9973 18.5697C15.4439 18.5697 14.8851 18.6912 14.3629 18.9409C13.1202 19.5354 11.7862 19.8368 10.3976 19.8368C10.3967 19.8368 10.3956 19.8368 10.3947 19.8368C7.91542 19.8361 5.58688 18.854 3.83804 17.0713C2.08813 15.2875 1.15009 12.9386 1.19688 10.4574C1.29077 5.48095 5.41811 1.43232 10.3975 1.43232C15.4763 1.43232 19.518 5.40864 19.5986 10.4848C19.6187 11.7518 19.3863 12.982 18.9077 14.1415C18.3268 15.5491 18.6437 17.1509 19.7151 18.2223L28.5459 27.053C28.8918 27.399 28.8918 27.9618 28.546 28.3077Z" fill="black"/>
<path d="M10.3975 3.26611C6.33456 3.26611 3.02908 6.5716 3.02908 10.6346C3.02908 14.6976 6.33456 18.003 10.3975 18.003C14.4605 18.003 17.766 14.6976 17.766 10.6346C17.766 6.5716 14.4605 3.26611 10.3975 3.26611ZM10.3975 16.8078C6.99362 16.8078 4.22433 14.0385 4.22433 10.6346C4.22433 7.23066 6.99362 4.46137 10.3975 4.46137C13.8014 4.46137 16.5707 7.23066 16.5707 10.6346C16.5707 14.0385 13.8014 16.8078 10.3975 16.8078Z" fill="black"/>
<path d="M12.3959 5.47974C11.7588 5.23262 11.0864 5.1073 10.3975 5.1073C7.34976 5.1073 4.87025 7.5868 4.87025 10.6346C4.87025 11.5928 5.11947 12.5371 5.59099 13.3655C5.7012 13.559 5.90308 13.6676 6.11093 13.6676C6.21109 13.6676 6.31269 13.6423 6.4061 13.5891C6.6929 13.4259 6.79306 13.061 6.62979 12.7741C6.2607 12.1257 6.06557 11.3859 6.06557 10.6346C6.06557 8.24593 8.00894 6.30256 10.3976 6.30256C10.938 6.30256 11.4649 6.40069 11.9636 6.59414C12.2714 6.71343 12.6176 6.56073 12.737 6.25307C12.8563 5.94535 12.7036 5.59915 12.3959 5.47974Z" fill="black"/>
<path d="M14.1935 6.61704C13.9537 6.3903 13.5754 6.401 13.3487 6.64088C13.122 6.88071 13.1326 7.25901 13.3725 7.48569C13.7007 7.79586 13.9773 8.15306 14.1946 8.54738C14.3035 8.74495 14.5078 8.85665 14.7185 8.85665C14.816 8.85665 14.915 8.83269 15.0065 8.78237C15.2955 8.62304 15.4007 8.25956 15.2414 7.97049C14.9643 7.4677 14.6118 7.01231 14.1935 6.61704Z" fill="black"/>
</g>
<defs>
<clipPath id="clip0_7_147">
<rect width="30" height="30" fill="white"/>
</clipPath>
</defs>
</svg>
